<?xml version="1.0" standalone="no"?>
<!DOCTYPE svg PUBLIC "-//W3C//DTD SVG 20010904//EN"
 "http://www.w3.org/TR/2001/REC-SVG-20010904/DTD/svg10.dtd">
<svg version="1.0" xmlns="http://www.w3.org/2000/svg"
 width="512.000000pt" height="512.000000pt" viewBox="0 0 512.000000 512.000000"
 preserveAspectRatio="xMidYMid meet">

<g transform="translate(0.000000,512.000000) scale(0.100000,-0.100000)"
fill="#000000" stroke="none">
<path d="M3607 4795 c-115 -81 -252 -105 -480 -86 -257 23 -442 25 -520 7
-191 -45 -296 -162 -301 -339 l-2 -67 -45 -28 c-114 -72 -171 -210 -148 -353
13 -80 49 -150 117 -224 52 -58 55 -64 58 -119 5 -120 92 -228 193 -242 40 -5
48 -9 44 -24 -4 -14 -22 -18 -126 -24 -67 -3 -142 -11 -167 -17 -25 -7 -103
-12 -175 -13 -110 -1 -137 -4 -176 -22 -38 -18 -55 -20 -90 -13 -70 13 -248
10 -324 -6 -209 -44 -356 -185 -424 -409 -32 -104 -47 -285 -33 -390 13 -96
29 -135 80 -188 29 -31 35 -45 35 -80 0 -51 -26 -106 -80 -168 -188 -213 -386
-518 -399 -611 -9 -62 19 -122 86 -186 l53 -51 -27 -73 c-41 -115 -57 -204
-58 -313 0 -153 33 -258 98 -316 113 -99 348 -150 594 -129 92 8 114 7 139 -6
42 -21 132 -19 221 6 200 55 262 139 299 404 l11 80 123 125 c175 179 293 345
347 491 13 34 33 67 46 76 38 25 122 41 274 53 134 10 404 44 441 56 35 10 39
-169 7 -371 -32 -200 -32 -613 0 -789 22 -127 39 -159 70 -140 21 14 21 37 -3
184 -15 88 -19 167 -20 340 0 277 20 441 70 571 38 98 72 228 81 310 l6 57 74
-34 c184 -84 361 -117 589 -112 178 3 209 13 252 76 31 48 36 122 30 485 -6
351 -20 515 -69 797 -48 276 -48 275 0 362 52 96 68 145 88 275 31 206 3 405
-70 489 -31 36 -38 39 -84 39 -41 0 -57 -6 -88 -30 l-37 -31 -28 28 c-35 35
-79 36 -136 4 -36 -21 -44 -22 -60 -10 -25 18 -87 17 -126 -2 -38 -19 -127
-103 -127 -120 0 -16 -58 -24 -187 -24 l-113 0 0 50 c0 28 0 53 0 58 0 4 21
12 47 19 154 39 310 166 376 304 70 147 63 169 -52 169 -42 0 -86 3 -97 6
l-21 6 19 50 c21 57 34 154 24 192 -9 35 -39 33 -99 -9z m28 -101 c-3 -20 -20
-65 -37 -99 -46 -93 -48 -92 135 -112 l68 -8 -31 -63 c-66 -130 -185 -222
-336 -258 -58 -14 -104 -15 -284 -10 -291 8 -341 -6 -426 -120 -83 -111 -139
-155 -217 -169 -54 -10 -129 11 -175 51 -93 79 -92 188 1 290 l52 57 -3 93
c-3 77 0 101 18 141 68 154 211 197 565 168 335 -27 485 -16 606 45 71 36 72
36 64 -6z m702 -632 c12 -8 43 -73 43 -91 0 -6 -7 -8 -15 -5 -8 4 -15 16 -15
29 0 35 -24 37 -67 5 -42 -33 -71 -38 -80 -14 -6 17 30 61 62 74 26 11 57 12
72 2z m-422 -22 c19 -30 -21 -66 -85 -76 -54 -9 -52 7 8 51 49 36 67 42 77 25z
m195 -4 c0 -19 -57 -66 -81 -66 -27 0 -24 23 7 54 29 28 74 35 74 12z m-760
-45 c0 -45 -10 -51 -77 -51 -54 0 -122 -35 -143 -74 -17 -32 -31 -33 -78 -1
-109 74 -246 -18 -245 -165 1 -100 58 -172 146 -187 35 -5 83 13 106 40 16 20
46 11 80 -23 30 -30 85 -50 141 -50 64 0 65 -4 47 -131 -19 -127 -58 -224
-103 -254 -48 -31 -229 -12 -341 36 -101 43 -180 134 -227 262 -43 114 -43
118 7 153 57 41 76 84 97 224 18 122 33 161 72 196 53 48 128 61 361 63 l157
1 0 -39z m865 -108 c-43 -101 -52 -236 -22 -307 9 -21 17 -40 17 -42 0 -2 -27
-4 -60 -4 -33 0 -60 1 -60 3 0 1 7 24 15 51 26 86 18 208 -20 299 -6 15 0 17
65 17 65 0 71 -2 65 -17z m-565 0 c0 -5 -9 -32 -20 -61 -28 -72 -35 -183 -17
-249 8 -29 10 -53 5 -53 -54 0 -369 33 -390 41 -14 6 -37 22 -50 36 -20 21
-23 34 -23 101 0 54 6 87 18 109 32 59 55 67 221 74 243 9 256 9 256 2z m178
-40 c-29 -65 -37 -228 -14 -293 8 -24 14 -45 12 -47 -1 -1 -26 0 -55 4 -48 5
-54 9 -71 44 -40 78 -36 166 12 287 l22 52 57 0 58 0 -21 -47z m-818 -33 c12
-8 12 -14 -3 -45 -20 -42 -22 -93 -5 -130 13 -28 6 -39 -30 -50 -18 -5 -30 1
-57 28 -30 30 -35 42 -35 82 0 72 38 123 95 124 11 0 27 -3 35 -9z m-548 -177
c34 -36 78 -126 78 -158 0 -26 -31 -65 -52 -65 -48 0 -123 92 -135 164 -12 78
56 115 109 59z m1046 -173 l35 0 -6 -207 c-6 -214 -25 -406 -53 -550 l-17 -83
-30 18 c-16 9 -53 38 -81 63 l-51 47 0 93 c0 76 -4 103 -23 143 l-22 48 32 36
c60 70 75 117 114 371 5 31 7 33 36 27 17 -3 46 -6 66 -6z m842 -9 c0 -2 -19
-42 -41 -87 -23 -46 -43 -102 -46 -126 -3 -26 7 -104 25 -198 33 -165 55 -331
72 -525 15 -165 14 -745 -1 -778 -20 -43 -59 -52 -224 -51 -164 1 -267 18
-344 56 l-46 23 1 180 c0 143 5 200 22 279 11 54 23 100 26 103 2 3 23 -9 45
-27 32 -26 42 -43 50 -82 27 -121 117 -211 151 -149 8 16 5 25 -14 48 -78 94
-84 197 -32 553 40 269 58 481 49 577 l-6 62 -62 30 c-61 28 -105 62 -105 80
0 4 22 6 49 3 31 -3 60 1 82 11 19 8 41 18 49 20 18 7 300 5 300 -2z m-570
-18 c3 -3 4 -89 4 -191 -3 -283 -48 -626 -95 -714 -9 -18 -14 -17 -80 18 -38
20 -69 42 -69 48 0 7 11 77 24 157 32 192 46 354 46 544 l0 157 83 -7 c45 -4
84 -9 87 -12z m197 -293 c-5 -109 -76 -665 -95 -743 l-7 -28 -68 52 c-51 38
-67 55 -61 68 29 69 56 181 73 298 23 162 41 364 41 467 l0 73 61 -31 61 -31
-5 -125z m-1874 51 c33 -13 177 -227 233 -347 125 -267 195 -614 181 -908 -5
-93 -11 -135 -23 -153 -14 -22 -113 -77 -122 -68 -2 2 2 39 9 82 15 98 15 303
0 408 -46 309 -199 664 -397 924 -19 24 -34 48 -34 52 0 4 28 10 63 12 34 2
63 4 64 5 1 1 13 -2 26 -7z m568 -158 c42 -39 142 -100 177 -108 l27 -5 1
-128 c0 -70 6 -151 12 -181 7 -30 10 -56 7 -59 -9 -10 -176 48 -259 90 -88 44
-187 131 -217 191 l-20 37 41 53 c39 52 86 145 110 220 l12 37 38 -57 c20 -32
53 -72 71 -90z m-1004 90 c13 -61 8 -154 -12 -213 l-18 -55 -12 70 c-14 82
-41 140 -92 195 l-35 40 80 0 81 0 8 -37z m-207 -31 c30 -22 76 -112 86 -167
l6 -40 -32 33 c-18 18 -43 35 -56 38 -93 23 -223 -87 -278 -236 -13 -36 -30
-66 -38 -68 -8 -2 -26 6 -39 17 -23 18 -23 21 -11 77 17 84 84 214 145 280 82
91 153 112 217 66z m16 -237 c20 -30 33 -95 27 -128 -5 -26 -76 -67 -116 -67
-13 0 -28 -5 -33 -10 -6 -6 -34 -13 -62 -17 -61 -7 -62 -4 -29 78 57 138 168
213 213 144z m1542 -207 c107 -217 212 -498 199 -532 -4 -9 -30 -27 -59 -42
-41 -21 -72 -28 -133 -32 -149 -8 -281 43 -385 148 l-66 66 -13 84 c-11 72
-47 230 -67 292 -4 15 3 13 40 -12 107 -73 340 -163 404 -158 35 3 37 5 40 40
2 20 -6 84 -17 143 -24 121 -24 125 -12 125 5 0 36 -55 69 -122z m184 71 c10
-6 35 -45 54 -87 40 -87 104 -266 104 -289 0 -16 -69 -113 -81 -113 -3 0 -19
37 -34 83 -40 120 -100 268 -140 347 -19 38 -35 72 -35 76 0 10 108 -4 132
-17z m-1129 -57 c254 -385 286 -858 85 -1244 -39 -75 -119 -178 -139 -178 -5
0 -9 13 -9 29 0 73 -66 229 -132 313 -33 43 -36 35 49 141 95 118 155 211 147
230 -14 38 -49 17 -159 -93 -60 -60 -128 -123 -151 -140 l-42 -30 -55 93 c-72
121 -124 191 -235 314 l-92 102 103 99 c158 152 268 246 379 320 49 34 189
112 200 112 3 0 26 -31 51 -68z m1371 -137 c-4 -16 -11 -41 -17 -55 l-9 -25
-15 35 c-8 19 -24 57 -34 83 l-19 48 50 -28 c47 -26 50 -30 44 -58z m143 -46
l55 -31 -29 -30 c-15 -16 -45 -39 -66 -49 -29 -15 -38 -25 -35 -42 2 -14 11
-23 26 -25 27 -4 113 48 143 86 17 22 22 24 34 11 12 -12 11 -25 -5 -93 -30
-125 -50 -278 -50 -389 l-1 -102 -46 50 c-25 28 -59 77 -74 110 -27 59 -84
296 -82 345 1 35 56 190 67 190 5 0 33 -14 63 -31z m-833 -454 c156 -69 313
-72 439 -8 27 13 50 23 52 21 2 -2 6 -24 10 -50 l7 -46 -54 -11 c-147 -30
-270 -44 -435 -50 l-182 -6 -3 131 -3 131 55 -43 c30 -24 81 -55 114 -69z
m-1440 43 c96 -110 185 -264 232 -401 13 -39 24 -72 24 -74 0 -5 -109 -58
-180 -88 -55 -23 -78 -27 -146 -26 -62 1 -84 -2 -94 -14 -18 -22 4 -45 44 -45
64 0 151 -31 221 -78 85 -57 387 -360 450 -452 59 -85 85 -161 85 -247 0 -79
-21 -132 -70 -181 -59 -59 -168 -102 -262 -102 -45 0 -49 2 -67 38 -11 21 -22
54 -26 73 -13 71 31 161 95 194 23 12 30 12 49 -1 33 -24 27 -59 -19 -95 -70
-57 -41 -112 38 -72 25 13 44 34 60 65 20 40 22 52 13 85 -6 21 -23 51 -38 65
-16 15 -100 57 -188 94 -310 131 -541 261 -716 402 -75 61 -109 108 -109 152
0 52 143 282 285 460 84 106 256 299 267 300 3 0 27 -24 52 -52z m1741 -274
c-3 -20 -12 -53 -18 -73 -12 -36 -12 -36 -87 -44 -135 -14 -191 6 -230 82
l-19 38 162 12 c89 7 164 15 166 17 2 2 11 4 19 4 11 0 13 -8 7 -36z m-2068
-835 l152 -101 7 -46 c17 -114 -17 -264 -79 -350 -41 -57 -61 -58 -157 -10
-68 35 -101 72 -121 137 -18 56 -23 224 -9 294 16 82 42 177 49 177 3 0 74
-46 158 -101z"/>
<path d="M2941 3376 c-39 -47 117 -111 210 -86 65 17 110 66 79 85 -6 4 -42
-2 -81 -12 -67 -17 -71 -17 -117 0 -75 29 -78 29 -91 13z"/>
</g>
</svg>
